<svg xmlns="http://www.w3.org/2000/svg" viewBox="0 0 256 256" width="256" height="256">
  <defs>
    <linearGradient id="reNestMoss" x1="0%" y1="0%" x2="100%" y2="100%">
      <stop offset="0%" stop-color="#37643f" />
      <stop offset="100%" stop-color="#5b975e" />
    </linearGradient>
  </defs>
  <rect width="256" height="256" rx="60" ry="60" fill="url(#reNestMoss)" />
  <g transform="translate(48, 48) scale(6.6667)" fill="none" stroke="#ffffff" stroke-width="2.2" stroke-linecap="round" stroke-linejoin="round">
    <path d="M14 9.536V7a4 4 0 0 1 4-4h1.5a.5.5 0 0 1 .5.5V5a4 4 0 0 1-4 4 4 4 0 0 0-4 4c0 2 1 3 1 5a5 5 0 0 1-1 3" />
    <path d="M4 9a5 5 0 0 1 8 4 5 5 0 0 1-8-4" />
    <path d="M5 21h14" />
  </g>
</svg>
